<?xml version="1.0" encoding="UTF-8"?><svg id="Calque_1" xmlns="http://www.w3.org/2000/svg" viewBox="0 0 565.11 155.88"><defs><style>.cls-1{fill:#244766;}</style></defs><path class="cls-1" d="M180.48,49.08h2.7v21.71h-2.7v-21.71Z"/><path class="cls-1" d="M191.25,49.08l13.31,16.63v-16.63h2.67v21.71h-1.86l-13.34-16.57v16.57h-2.67v-21.71h1.89Z"/><path class="cls-1" d="M211.07,51.5v-2.42h17.5v2.42h-7.41v19.29h-2.67v-19.29h-7.41Z"/><path class="cls-1" d="M232.42,49.08h15.26v2.48h-12.59v6.79h12.07v2.51h-12.07v7.35h13.09v2.58h-15.76v-21.71Z"/><path class="cls-1" d="M269.25,53.7c-.83-.81-1.82-1.43-2.98-1.88-1.16-.44-2.31-.67-3.44-.67-2.69,0-4.8.86-6.33,2.59-1.53,1.73-2.3,3.85-2.3,6.38,0,2.38.75,4.39,2.25,6.05,1.5,1.65,3.65,2.48,6.44,2.48,2.25,0,4.23-.73,5.93-2.2v-5.15h-6.76v-2.39h9.21v8.59c-2.3,2.46-5.1,3.69-8.41,3.69-1.86,0-3.53-.3-5.01-.9-1.48-.6-2.67-1.42-3.57-2.45-.9-1.03-1.58-2.21-2.05-3.52s-.7-2.71-.7-4.2c-.02-3.33.99-6.08,3.04-8.24s4.8-3.24,8.25-3.24c3.12,0,5.78,1.09,7.97,3.26l-1.55,1.8Z"/><path class="cls-1" d="M284.33,62.98h-5.27v7.82h-2.7v-21.71h9.86c2.32,0,4.12.68,5.41,2.05,1.29,1.36,1.94,3,1.94,4.9.02,1.78-.49,3.3-1.52,4.58-1.03,1.27-2.61,1.99-4.72,2.16l7.17,8.03h-3.41l-6.76-7.82ZM289.65,59.3c.82-.84,1.23-1.91,1.23-3.21.02-1.2-.38-2.26-1.21-3.2s-1.98-1.4-3.44-1.4h-7.17v9.06h7.04c1.55,0,2.74-.42,3.55-1.26Z"/><path class="cls-1" d="M309.3,49.08l9.74,21.71h-2.92l-2.14-4.78h-12.41l-2.11,4.78h-2.95l9.74-21.71h3.04ZM307.78,51.81l-5.15,11.73h10.3l-5.15-11.73Z"/><path class="cls-1" d="M318.52,51.5v-2.42h17.5v2.42h-7.41v19.29h-2.67v-19.29h-7.41Z"/><path class="cls-1" d="M339.86,49.08h15.26v2.48h-12.59v6.79h12.07v2.51h-12.07v7.35h13.09v2.58h-15.76v-21.71Z"/><path class="cls-1" d="M360.49,49.05h7.91c1.78,0,3.38.3,4.81.9,1.43.6,2.58,1.41,3.44,2.42.87,1.01,1.53,2.15,1.99,3.4.46,1.25.68,2.56.68,3.92s-.22,2.79-.65,4.08c-.43,1.29-1.08,2.47-1.94,3.54-.86,1.07-2.01,1.91-3.44,2.54s-3.07.95-4.89.95h-7.91v-21.75ZM374.53,65.6c1.4-1.67,2.09-3.64,2.09-5.94s-.71-4.07-2.14-5.65c-1.43-1.57-3.45-2.36-6.08-2.36h-5.21v16.44h5.21c2.69,0,4.73-.83,6.13-2.5Z"/><path class="cls-1" d="M408.55,53.7c-.83-.81-1.82-1.43-2.98-1.88-1.16-.44-2.31-.67-3.44-.67-2.69,0-4.8.86-6.33,2.59-1.53,1.73-2.3,3.85-2.3,6.38,0,2.38.75,4.39,2.25,6.05,1.5,1.65,3.65,2.48,6.44,2.48,2.25,0,4.23-.73,5.92-2.2v-5.15h-6.76v-2.39h9.21v8.59c-2.3,2.46-5.1,3.69-8.41,3.69-1.86,0-3.53-.3-5.01-.9s-2.67-1.42-3.57-2.45-1.58-2.21-2.05-3.52c-.46-1.31-.7-2.71-.7-4.2-.02-3.33.99-6.08,3.04-8.24,2.05-2.16,4.8-3.24,8.25-3.24,3.12,0,5.78,1.09,7.97,3.26l-1.55,1.8Z"/><path class="cls-1" d="M423.63,62.98h-5.27v7.82h-2.7v-21.71h9.86c2.32,0,4.12.68,5.41,2.05,1.29,1.36,1.94,3,1.94,4.9.02,1.78-.49,3.3-1.52,4.58-1.03,1.27-2.61,1.99-4.71,2.16l7.17,8.03h-3.41l-6.76-7.82ZM428.95,59.3c.82-.84,1.22-1.91,1.22-3.21.02-1.2-.38-2.26-1.21-3.2s-1.97-1.4-3.44-1.4h-7.17v9.06h7.04c1.55,0,2.74-.42,3.55-1.26Z"/><path class="cls-1" d="M456.01,52.06c1.93,2.21,2.89,4.86,2.87,7.94,0,1.45-.23,2.83-.7,4.16-.46,1.32-1.14,2.52-2.02,3.58s-2.03,1.91-3.46,2.54-3.04.95-4.84.95-3.42-.32-4.85-.95-2.6-1.48-3.47-2.54-1.55-2.25-2.02-3.57c-.47-1.31-.7-2.7-.7-4.17,0-3.23,1.01-5.92,3.02-8.07,2.02-2.15,4.7-3.23,8.05-3.23,3.47.02,6.18,1.14,8.11,3.35ZM455.34,55.77c-.58-1.29-1.51-2.37-2.81-3.24s-2.84-1.31-4.64-1.33c-2.65,0-4.71.84-6.17,2.53-1.47,1.69-2.2,3.78-2.2,6.28s.72,4.45,2.17,6.14c1.45,1.7,3.52,2.54,6.2,2.54s4.71-.86,6.14-2.58c1.43-1.72,2.14-3.75,2.14-6.11.02-1.53-.26-2.94-.84-4.23Z"/><path class="cls-1" d="M464.12,49.08l5.99,17.96,6.02-17.96h1.74l6.08,17.96,5.92-17.96h3.07l-7.6,21.75h-2.7l-5.65-16.25-5.61,16.25h-2.73l-7.57-21.75h3.04Z"/><path class="cls-1" d="M494.71,51.5v-2.42h17.5v2.42h-7.41v19.29h-2.67v-19.29h-7.41Z"/><path class="cls-1" d="M531.17,60.99h-12.41v9.8h-2.7v-21.71h2.7v9.4h12.41v-9.4h2.7v21.71h-2.7v-9.8Z"/><path class="cls-1" d="M559.9,54.51c0-2.25-1.64-3.38-4.93-3.38-1.74,0-3.05.37-3.94,1.1-.89.73-1.32,1.63-1.3,2.68.02,1.26.58,2.19,1.68,2.78,1.1.59,2.31.88,3.63.88h9.65v2.2h-1.92v4.03c0,1.05.18,1.92.54,2.59.36.67.97,1,1.81.98v2.45c-2.05.14-3.33-.75-3.85-2.7-1.22,1.96-3.32,2.95-6.3,2.95-2.61,0-4.64-.53-6.1-1.58s-2.19-2.67-2.19-4.84c0-1.12.38-2.13,1.13-3.04.75-.91,1.68-1.55,2.78-1.92-1.03-.33-1.88-.94-2.53-1.81s-.98-1.85-.98-2.9c0-1.9.74-3.4,2.23-4.48,1.49-1.08,3.39-1.63,5.71-1.63.99,0,1.9.09,2.71.26.82.18,1.59.46,2.33.87s1.31.99,1.74,1.77.64,1.71.64,2.81h-2.54v-.06ZM554.84,60.75c-1.72,0-3.06.39-4.03,1.18s-1.46,1.67-1.46,2.67c0,1.28.5,2.28,1.49,2.99.99.71,2.35,1.07,4.06,1.07,1.28,0,2.5-.32,3.66-.96,1.16-.64,1.74-1.62,1.74-2.95v-4h-5.46Z"/><path class="cls-1" d="M191.59,100.46h-.56l-7.88-11.04v17.87h-2.67v-21.71h3.23l7.63,11.17,7.57-11.17h3.23v21.71h-2.67v-17.81l-7.88,10.98Z"/><path class="cls-1" d="M218.77,85.57l9.74,21.71h-2.92l-2.14-4.78h-12.41l-2.11,4.78h-2.95l9.74-21.71h3.04ZM217.25,88.3l-5.15,11.73h10.3l-5.15-11.73Z"/><path class="cls-1" d="M240.3,99.46h-5.27v7.82h-2.7v-21.71h9.86c2.32,0,4.12.68,5.41,2.05,1.29,1.36,1.94,3,1.94,4.9.02,1.78-.49,3.3-1.52,4.58s-2.61,1.99-4.72,2.16l7.17,8.03h-3.41l-6.76-7.82ZM245.62,95.79c.82-.84,1.23-1.91,1.23-3.21.02-1.2-.38-2.26-1.21-3.2s-1.97-1.4-3.44-1.4h-7.17v9.06h7.04c1.55,0,2.74-.42,3.55-1.26Z"/><path class="cls-1" d="M254.85,85.57h2.67v9.59l9.62-9.59h3.38v.16l-10.42,10.3,11.35,11.07v.19h-3.35l-10.58-10.21v10.21h-2.67v-21.71Z"/><path class="cls-1" d="M274.77,85.57h15.26v2.48h-12.59v6.79h12.07v2.51h-12.07v7.35h13.09v2.58h-15.76v-21.71Z"/><path class="cls-1" d="M293.04,87.99v-2.42h17.5v2.42h-7.41v19.29h-2.67v-19.29h-7.41Z"/><path class="cls-1" d="M314.39,85.57h2.7v21.71h-2.7v-21.71Z"/><path class="cls-1" d="M325.19,85.57l13.31,16.63v-16.63h2.67v21.71h-1.86l-13.34-16.57v16.57h-2.67v-21.71h1.89Z"/><path class="cls-1" d="M363.78,90.19c-.83-.81-1.82-1.43-2.98-1.88-1.16-.44-2.31-.67-3.44-.67-2.69,0-4.8.86-6.33,2.59-1.53,1.73-2.3,3.85-2.3,6.38,0,2.38.75,4.39,2.25,6.05,1.5,1.65,3.65,2.48,6.44,2.48,2.25,0,4.23-.73,5.92-2.2v-5.15h-6.76v-2.39h9.21v8.59c-2.3,2.46-5.1,3.69-8.41,3.69-1.86,0-3.53-.3-5.01-.9s-2.67-1.42-3.57-2.45-1.58-2.21-2.05-3.52c-.46-1.31-.7-2.71-.7-4.2-.02-3.33.99-6.08,3.04-8.24,2.05-2.16,4.8-3.24,8.25-3.24,3.12,0,5.78,1.09,7.97,3.26l-1.55,1.8Z"/><path class="cls-1" d="M389.94,88.25c-1.12-.47-2.32-.71-3.6-.73-1.55,0-2.89.32-4.02.95-1.13.63-1.69,1.56-1.69,2.78,0,.56.15,1.04.43,1.46.29.41.73.75,1.33,1.02.6.27,1.21.48,1.81.64.61.15,1.38.3,2.31.45,1.08.17,1.94.32,2.61.47.66.14,1.42.38,2.28.7.86.32,1.53.69,2,1.1.48.41.88.98,1.23,1.69.34.71.51,1.55.51,2.5,0,1.16-.26,2.17-.79,3.04-.53.87-1.23,1.54-2.11,2.02s-1.82.83-2.81,1.05c-.99.23-2.04.34-3.13.34-2.07,0-3.92-.41-5.55-1.23-1.63-.82-2.84-2.08-3.63-3.8l2.23-1.3c.66,1.22,1.64,2.16,2.93,2.82,1.29.66,2.64.99,4.05.99.72,0,1.42-.06,2.09-.19.67-.12,1.32-.33,1.96-.62.63-.29,1.14-.71,1.52-1.26s.57-1.2.57-1.97c0-.64-.16-1.2-.48-1.67-.32-.48-.8-.86-1.44-1.15-.64-.29-1.29-.52-1.94-.68-.65-.17-1.45-.32-2.4-.47-.99-.14-1.83-.29-2.5-.45-.67-.16-1.4-.38-2.19-.68-.79-.3-1.42-.65-1.89-1.05s-.87-.93-1.19-1.58-.48-1.4-.48-2.25c-.02-1.08.22-2.02.73-2.84.51-.82,1.18-1.45,2.02-1.91.84-.46,1.73-.79,2.67-1.01.94-.22,1.91-.33,2.9-.33,1.86,0,3.47.28,4.84.84s2.49,1.59,3.38,3.1l-2.05,1.27c-.56-.91-1.4-1.6-2.51-2.06Z"/><path class="cls-1" d="M397.51,87.99v-2.42h17.5v2.42h-7.41v19.29h-2.67v-19.29h-7.41Z"/><path class="cls-1" d="M426.83,99.46h-5.27v7.82h-2.7v-21.71h9.86c2.32,0,4.12.68,5.41,2.05,1.29,1.36,1.94,3,1.94,4.9.02,1.78-.49,3.3-1.52,4.58-1.03,1.27-2.61,1.99-4.71,2.16l7.17,8.03h-3.41l-6.76-7.82ZM432.15,95.79c.82-.84,1.22-1.91,1.22-3.21.02-1.2-.38-2.26-1.21-3.2s-1.97-1.4-3.44-1.4h-7.17v9.06h7.04c1.55,0,2.74-.42,3.55-1.26Z"/><path class="cls-1" d="M451.8,85.57l9.74,21.71h-2.92l-2.14-4.78h-12.41l-2.11,4.78h-2.95l9.74-21.71h3.04ZM450.28,88.3l-5.15,11.73h10.3l-5.15-11.73Z"/><path class="cls-1" d="M461.02,87.99v-2.42h17.5v2.42h-7.41v19.29h-2.67v-19.29h-7.41Z"/><path class="cls-1" d="M482.36,85.57h15.26v2.48h-12.59v6.79h12.07v2.51h-12.07v7.35h13.09v2.58h-15.76v-21.71Z"/><path class="cls-1" d="M519.16,90.19c-.83-.81-1.82-1.43-2.98-1.88-1.16-.44-2.31-.67-3.44-.67-2.69,0-4.8.86-6.33,2.59-1.53,1.73-2.3,3.85-2.3,6.38,0,2.38.75,4.39,2.25,6.05s3.64,2.48,6.44,2.48c2.25,0,4.23-.73,5.93-2.2v-5.15h-6.76v-2.39h9.21v8.59c-2.3,2.46-5.1,3.69-8.41,3.69-1.86,0-3.53-.3-5.01-.9-1.48-.6-2.67-1.42-3.57-2.45-.9-1.03-1.58-2.21-2.05-3.52-.47-1.31-.7-2.71-.7-4.2-.02-3.33.99-6.08,3.04-8.24,2.05-2.16,4.8-3.24,8.25-3.24,3.12,0,5.78,1.09,7.97,3.26l-1.55,1.8Z"/><path class="cls-1" d="M523.35,85.66v-.09h3.29l6.51,10.3,6.67-10.3h3.29v.09l-8.56,12.81v8.81h-2.79v-8.81l-8.41-12.81Z"/><path class="cls-1" d="M27.07,90.05h6.51v-24.18h-6.51v24.18ZM79.62,84.61c-3.67,0-6.41-2.75-6.41-6.66s2.75-6.66,6.41-6.66,6.44,2.74,6.44,6.66-2.77,6.66-6.44,6.66M79.62,65.22c-7.51,0-13.05,5.44-13.05,12.73s5.54,12.73,13.05,12.73,13.1-5.44,13.1-12.73-5.56-12.73-13.1-12.73M118.67,69.9l-4.6-4.61-8.06,8.06-7.68-7.68-4.61,4.61,7.68,7.68-7.44,7.43,4.61,4.61,7.44-7.43,7.4,7.4,4.61-4.61-7.4-7.4,8.06-8.06ZM53.27,65.22c-2.74,0-5.39.92-7.11,3.49v-2.85h-6.34v24.18h6.51v-13.25c0-3.64,2.32-5.47,5.12-5.47,2.97,0,4.72,1.92,4.72,5.42v13.3h6.51v-15.4c0-5.61-3.92-9.43-9.41-9.43"/><path class="cls-1" d="M72.87,5.13c-6.03,0-12.05,1.55-17.42,4.65L22.55,28.77c-10.75,6.21-17.42,17.77-17.42,30.18v37.98c0,12.41,6.68,23.97,17.42,30.18l32.89,18.99c10.75,6.2,24.1,6.2,34.85,0l32.89-18.99c10.75-6.21,17.42-17.77,17.42-30.18v-37.98c0-12.41-6.68-23.97-17.42-30.18l-32.89-18.99c-5.37-3.1-11.4-4.65-17.42-4.65M72.87,155.88c-6.91,0-13.82-1.78-19.99-5.34l-32.89-18.99C7.66,124.44,0,111.17,0,96.93v-37.98c0-14.24,7.66-27.5,19.99-34.62L52.88,5.34c12.33-7.12,27.65-7.12,39.98,0l32.89,18.99c12.33,7.12,19.99,20.38,19.99,34.62v37.98c0,14.24-7.66,27.5-19.99,34.62l-32.89,18.99c-6.17,3.56-13.08,5.34-19.99,5.34"/></svg>